<svg width="840" height="481" viewBox="0 0 840 481" fill="none" xmlns="http://www.w3.org/2000/svg">
<path d="M99 107L89.7576 19L69 84.0769L99 107Z" fill="#2388F2"/>
<path opacity="0.1" d="M190 187.713L160.113 165L142 222.774L181.547 240L190 187.713Z" fill="#001370"/>
<path opacity="0.1" d="M789 330L793.961 405L812 347.343L789 330Z" fill="#001370"/>
<path d="M65 231.588L99 246L73.6154 179L65 231.588Z" fill="#2388F2"/>
<path opacity="0.1" d="M247 94.488L213.441 80L202 150L243.492 100.588C245.017 98.9107 246.237 96.7756 247 94.488Z" fill="#001370"/>
<path d="M118.435 365L128 318L99 344.111L118.435 365Z" fill="#2388F2"/>
<path opacity="0.1" d="M261 19L289.702 107L301 36.3846L261 19Z" fill="#001370"/>
<path opacity="0.1" d="M338 157.542L376 198L347.538 111L338 157.542Z" fill="#001370"/>
<path d="M295 172.308L248 192L261.841 160L295 172.308Z" fill="#2388F2"/>
<path opacity="0.1" d="M409.952 49L399 99L428 79.7927L409.952 49Z" fill="#001370"/>
<path opacity="0.1" d="M720.952 268L710 318L739 298.793L720.952 268Z" fill="#001370"/>
<path opacity="0.1" d="M222 408.624L250.6 397L261 423L222 408.624Z" fill="#001370"/>
<path opacity="0.1" d="M667 365.624L695.6 354L706 380L667 365.624Z" fill="#001370"/>
<path opacity="0.1" d="M307.569 351L261 320L352 333.264L307.569 351Z" fill="#001370"/>
<path opacity="0.1" d="M65.5688 307L19 276L110 289.264L65.5688 307Z" fill="#001370"/>
<path opacity="0.1" d="M185.978 380L166 350L236 362.985L185.978 380Z" fill="#001370"/>
<path opacity="0.1" d="M353 286.538L399 287L361.144 246L353 286.538Z" fill="#001370"/>
<path opacity="0.1" d="M534 369.538L581 370L542.321 329L534 369.538Z" fill="#001370"/>
<path opacity="0.1" d="M294 429.154L382 423L321.749 455L294 429.154Z" fill="#001370"/>
<path opacity="0.1" d="M489.373 306L456 293.865L494.119 279L518 294.472L489.373 306Z" fill="#001370"/>
<path opacity="0.1" d="M652 298.978L577 307L630.768 279L652 298.978Z" fill="#001370"/>
<path opacity="0.1" d="M628.63 444L620 398L667 428.923L628.63 444Z" fill="#001370"/>
<path opacity="0.1" d="M86.6189 410L114 435.7L60.7505 464L37 427.439L86.6189 410Z" fill="#001370"/>
<path opacity="0.1" d="M20 100L24.9608 175L43 117.343L20 100Z" fill="#001370"/>
<path opacity="0.1" d="M144.105 142L154 96L124 121.556L144.105 142Z" fill="#001370"/>
<path d="M446.007 335L466 365.595L399 389L440.513 339.436C442.039 337.754 443.87 336.224 446.007 335Z" fill="#2388F2"/>
<path opacity="0.1" d="M249.995 247.638L296.279 233.903L272.764 265.078L249.995 247.638Z" fill="#001370"/>
<path opacity="0.1" d="M545 263.488L589 246L568.588 279L545 263.488Z" fill="#001370"/>
<path opacity="0.1" d="M158 290.488L202 273L181.588 306L158 290.488Z" fill="#001370"/>
</svg>
