<svg width="146" height="385" viewBox="0 0 146 385" fill="none" xmlns="http://www.w3.org/2000/svg">
<path style="mix-blend-mode:screen" d="M27.4873 329.451C27.7632 329.73 28.1102 329.929 28.4908 330.025C28.8714 330.122 29.2711 330.112 29.6467 329.998C30.0223 329.884 30.3596 329.669 30.6219 329.377C30.8843 329.085 31.0619 328.726 31.1354 328.341C31.2089 327.955 31.1756 327.557 31.0391 327.189C30.9026 326.82 30.668 326.497 30.3608 326.252C30.0536 326.008 29.6853 325.852 29.296 325.802C28.9066 325.751 28.5109 325.808 28.1516 325.966L-149.49 148.315V129.496L-35.5071 243.478C-35.6828 243.872 -35.7354 244.31 -35.6582 244.735C-35.581 245.159 -35.3775 245.55 -35.0743 245.857C-34.6705 246.26 -34.1233 246.487 -33.5527 246.487C-32.9821 246.487 -32.4348 246.26 -32.031 245.857C-31.8309 245.658 -31.6721 245.42 -31.5638 245.159C-31.4555 244.898 -31.3997 244.618 -31.3997 244.336C-31.3997 244.053 -31.4555 243.773 -31.5638 243.512C-31.6721 243.251 -31.8309 243.014 -32.031 242.814C-32.337 242.509 -32.7277 242.304 -33.1522 242.225C-33.5766 242.146 -34.015 242.197 -34.4101 242.371L-122.655 154.118H-89.2306L23.4678 266.814V302.453L94.4268 373.414C94.2251 373.874 94.1904 374.39 94.3287 374.872C94.4669 375.355 94.7695 375.774 95.1841 376.058C95.5987 376.341 96.0992 376.47 96.5991 376.424C97.099 376.377 97.567 376.157 97.922 375.802C98.277 375.447 98.4969 374.979 98.5435 374.479C98.5901 373.979 98.4606 373.479 98.1773 373.064C97.8941 372.65 97.4749 372.347 96.9922 372.209C96.5095 372.071 95.9937 372.105 95.5339 372.307L25.0317 301.805V266.166L-88.5825 152.554H-124.219L-206.657 70.1161L-207.762 71.2231L-151.054 127.932V148.963L27.0465 327.063C26.8701 327.459 26.8178 327.899 26.8965 328.325C26.9752 328.752 27.1812 329.144 27.4873 329.451ZM-58.6482 125.581V161.219L6.71127 226.579H42.3498L112.852 297.083C112.65 297.543 112.616 298.059 112.754 298.541C112.892 299.024 113.195 299.443 113.609 299.726C114.024 300.01 114.524 300.139 115.024 300.092C115.524 300.046 115.992 299.826 116.347 299.471C116.702 299.116 116.922 298.648 116.969 298.148C117.015 297.648 116.886 297.148 116.602 296.733C116.319 296.319 115.9 296.016 115.417 295.878C114.935 295.739 114.419 295.774 113.959 295.976L42.9979 225.015H7.35938L-57.0842 160.577V124.933L-129.227 52.79V10.6622L-104.373 35.5162V56.5499L73.7273 234.648C73.5525 235.042 73.5011 235.481 73.5797 235.905C73.6584 236.329 73.8635 236.72 74.1681 237.025C74.3679 237.225 74.6051 237.384 74.8662 237.492C75.1273 237.6 75.4071 237.656 75.6897 237.656C75.9723 237.656 76.2522 237.6 76.5133 237.492C76.7744 237.384 77.0116 237.225 77.2114 237.025C77.4115 236.825 77.5703 236.588 77.6786 236.327C77.7869 236.066 77.8427 235.786 77.8427 235.503C77.8427 235.221 77.7869 234.941 77.6786 234.68C77.5703 234.419 77.4115 234.181 77.2114 233.982C76.9059 233.676 76.5151 233.471 76.0905 233.392C75.6658 233.313 75.2272 233.364 74.8323 233.539L-102.809 55.9118V37.0902L11.1736 151.063C10.9987 151.458 10.9473 151.896 11.0264 152.321C11.1054 152.745 11.3111 153.136 11.6165 153.442C11.8161 153.642 12.0531 153.8 12.3141 153.908C12.575 154.016 12.8547 154.072 13.1371 154.072C13.4196 154.072 13.6992 154.016 13.9602 153.908C14.2211 153.8 14.4581 153.642 14.6578 153.442C14.8579 153.242 15.0166 153.005 15.1249 152.744C15.2333 152.483 15.2891 152.203 15.2891 151.92C15.2891 151.637 15.2333 151.358 15.1249 151.096C15.0166 150.835 14.8579 150.598 14.6578 150.398C14.3519 150.094 13.961 149.889 13.5364 149.81C13.1118 149.731 12.6734 149.783 12.2787 149.958L-27.7216 109.955H5.70285L70.1485 174.401V210.038L141.11 280.999C140.909 281.458 140.875 281.973 141.013 282.454C141.152 282.936 141.454 283.354 141.868 283.636C142.283 283.918 142.782 284.047 143.281 284C143.78 283.953 144.247 283.733 144.601 283.378C144.955 283.024 145.174 282.557 145.22 282.058C145.266 281.559 145.136 281.059 144.853 280.646C144.57 280.232 144.152 279.93 143.67 279.793C143.188 279.655 142.673 279.69 142.215 279.892L71.7125 209.389V173.763L6.35098 108.391H-29.2856L-137.109 0.559937L-138.214 1.66698L-130.791 9.09016V53.432L-58.6482 125.581ZM-171.204 146.62C-171.004 146.821 -170.767 146.979 -170.506 147.088C-170.245 147.196 -169.965 147.252 -169.682 147.252C-169.399 147.252 -169.119 147.196 -168.858 147.088C-168.597 146.979 -168.36 146.821 -168.16 146.62C-167.96 146.421 -167.801 146.184 -167.693 145.922C-167.585 145.661 -167.529 145.381 -167.529 145.099C-167.529 144.816 -167.585 144.536 -167.693 144.275C-167.801 144.014 -167.96 143.777 -168.16 143.577C-168.466 143.272 -168.857 143.067 -169.282 142.988C-169.706 142.91 -170.145 142.961 -170.539 143.136L-225.106 88.5674L-226.213 89.6744L-171.644 144.241C-171.819 144.636 -171.871 145.075 -171.792 145.499C-171.714 145.924 -171.508 146.315 -171.204 146.62ZM60.3945 383.919C60.6702 384.198 61.0171 384.397 61.3976 384.494C61.7782 384.59 62.1778 384.581 62.5535 384.467C62.9291 384.353 63.2664 384.138 63.529 383.846C63.7915 383.554 63.9692 383.196 64.043 382.811C64.1167 382.425 64.0836 382.027 63.9474 381.659C63.8111 381.29 63.5767 380.966 63.2697 380.722C62.9626 380.477 62.5945 380.321 62.2052 380.271C61.8159 380.22 61.4201 380.277 61.0608 380.435L-124.04 195.34H-159.666L-245.317 109.694L-246.881 110.342L-160.318 196.906H-124.68L59.9537 381.54C59.7793 381.935 59.7281 382.373 59.8068 382.797C59.8854 383.222 60.0902 383.613 60.3945 383.919ZM-110.274 131.969L-139.347 102.898V72.8877L-121.411 90.8217C-121.587 91.2167 -121.638 91.6556 -121.56 92.0806C-121.481 92.5056 -121.276 92.8968 -120.97 93.2029C-120.567 93.606 -120.019 93.8324 -119.449 93.8324C-118.878 93.8324 -118.331 93.606 -117.927 93.2029C-117.727 93.003 -117.568 92.7657 -117.46 92.5044C-117.351 92.2431 -117.296 91.963 -117.296 91.6802C-117.296 91.3973 -117.351 91.1172 -117.46 90.856C-117.568 90.5947 -117.727 90.3573 -117.927 90.1575C-118.233 89.8527 -118.624 89.6476 -119.048 89.5689C-119.473 89.4902 -119.911 89.5418 -120.306 89.7167L-173.281 36.7419L-174.388 37.847L-140.911 71.3238V103.547L-110.92 133.537H-80.2797C-80.1834 133.86 -80.0116 134.154 -79.7785 134.397C-79.5788 134.597 -79.3417 134.756 -79.0806 134.864C-78.8194 134.972 -78.5395 135.028 -78.2568 135.028C-77.9742 135.028 -77.6942 134.972 -77.4331 134.864C-77.172 134.756 -76.9348 134.597 -76.7352 134.397C-76.5351 134.197 -76.3763 133.96 -76.268 133.699C-76.1597 133.438 -76.1039 133.158 -76.1039 132.875C-76.1039 132.592 -76.1597 132.312 -76.268 132.051C-76.3763 131.79 -76.5351 131.553 -76.7352 131.353C-76.9348 131.153 -77.172 130.995 -77.4331 130.886C-77.6942 130.778 -77.9742 130.722 -78.2568 130.722C-78.5395 130.722 -78.8194 130.778 -79.0806 130.886C-79.3417 130.995 -79.5788 131.153 -79.7785 131.353C-79.9479 131.534 -80.0842 131.743 -80.1811 131.971L-110.274 131.969ZM-132.92 269.908C-132.825 270.231 -132.653 270.526 -132.419 270.768C-132.219 270.968 -131.982 271.126 -131.721 271.235C-131.46 271.343 -131.18 271.399 -130.897 271.399C-130.615 271.399 -130.335 271.343 -130.074 271.235C-129.813 271.126 -129.575 270.968 -129.376 270.768C-129.176 270.568 -129.017 270.331 -128.909 270.07C-128.8 269.809 -128.745 269.529 -128.745 269.246C-128.745 268.963 -128.8 268.683 -128.909 268.422C-129.017 268.161 -129.176 267.924 -129.376 267.724C-129.575 267.524 -129.813 267.365 -130.074 267.257C-130.335 267.149 -130.615 267.093 -130.897 267.093C-131.18 267.093 -131.46 267.149 -131.721 267.257C-131.982 267.365 -132.219 267.524 -132.419 267.724C-132.589 267.904 -132.726 268.114 -132.822 268.342H-173.675L-289.278 152.739L-290.385 153.844L-104 340.229C-104.222 340.715 -104.265 341.263 -104.123 341.778C-103.981 342.292 -103.662 342.74 -103.222 343.043C-102.783 343.346 -102.25 343.484 -101.719 343.434C-101.188 343.384 -100.691 343.148 -100.316 342.768C-99.9406 342.388 -99.7112 341.889 -99.6678 341.357C-99.6244 340.825 -99.7696 340.294 -100.078 339.859C-100.387 339.423 -100.839 339.11 -101.355 338.974C-101.871 338.838 -102.419 338.888 -102.901 339.116L-172.111 269.908H-132.92ZM-85.0903 311.335C-84.8904 311.535 -84.6532 311.694 -84.3921 311.802C-84.131 311.91 -83.8512 311.966 -83.5686 311.966C-83.286 311.966 -83.0062 311.91 -82.7451 311.802C-82.484 311.694 -82.2467 311.535 -82.0469 311.335C-81.8471 311.136 -81.6886 310.898 -81.5804 310.637C-81.4723 310.376 -81.4166 310.096 -81.4166 309.814C-81.4166 309.531 -81.4723 309.251 -81.5804 308.99C-81.6886 308.729 -81.8471 308.492 -82.0469 308.292C-82.2889 308.058 -82.5838 307.886 -82.9064 307.791V268.531L-46.7083 304.732C-46.9096 305.191 -46.9441 305.706 -46.8059 306.188C-46.6676 306.67 -46.3653 307.089 -45.9511 307.372C-45.5369 307.655 -45.037 307.784 -44.5376 307.738C-44.0382 307.691 -43.5708 307.471 -43.2161 307.117C-42.8615 306.762 -42.6418 306.295 -42.5952 305.795C-42.5486 305.296 -42.6779 304.796 -42.9608 304.382C-43.2437 303.967 -43.6623 303.665 -44.1445 303.527C-44.6266 303.389 -45.1419 303.423 -45.6013 303.624L-116.562 232.663H-181.618L-204.564 209.718V174.091L-257.593 121.052L-258.698 122.159L-206.126 174.733V210.36L-182.266 234.227H-117.21L-84.4724 266.967V307.886C-84.7904 308.025 -85.0693 308.24 -85.2843 308.513C-85.4992 308.785 -85.6437 309.107 -85.7048 309.448C-85.7659 309.79 -85.7417 310.142 -85.6346 310.472C-85.5274 310.802 -85.3404 311.101 -85.0903 311.342V311.335Z" fill="url(#paint0_linear_375_13670)" fill-opacity="0.5"/>
<defs>
<linearGradient id="paint0_linear_375_13670" x1="3539.1" y1="187.952" x2="3322.99" y2="-63.2388" gradientUnits="userSpaceOnUse">
<stop offset="0.019" stop-color="#0099ffcc" stop-opacity="0"/>
<stop offset="1" stop-color="#0099ffcc" stop-opacity="1"/>
</linearGradient>
</defs>
</svg>
